<svg width="57" height="57" viewBox="0 0 57 57" fill="none" xmlns="http://www.w3.org/2000/svg">
<path d="M6.67647 21.875L6.67647 47.05C6.67647 48.7701 6.02011 50.4439 4.80588 51.82L2 55M50.3235 21.875L50.3235 47.05C50.3235 48.7701 50.9798 50.4439 52.1941 51.82L55 55" stroke="#F2D1BE" stroke-width="3.5" stroke-linecap="round"/>
<path d="M10.8593 15.25C10.17 17.3222 9.79492 19.552 9.79492 21.875C9.79492 32.8516 18.1698 41.75 28.5008 41.75C38.8318 41.75 47.2067 32.8516 47.2067 21.875C47.2067 10.8983 38.8318 2 28.5008 2C25.0998 2 21.9105 2.96444 19.1624 4.65" stroke="#F2D1BE" stroke-width="3.5" stroke-linecap="round"/>
<path d="M6.67676 49.7002L28.5003 49.7002M50.3238 49.7002L40.9709 49.7002" stroke="#F2D1BE" stroke-width="3.5" stroke-linecap="round"/>
<path d="M31.6172 10.6289C34.6126 11.9789 36.9078 15.2193 37.6208 19.2259" stroke="#F2D1BE" stroke-width="3.5" stroke-linecap="round"/>
</svg>
