<svg width="64" height="54" viewBox="0 0 64 54" fill="none" xmlns="http://www.w3.org/2000/svg">
<path d="M62.1143 1L1.88571 1C1.3968 1 1 1.34058 1 1.76023L1 34.952C1 35.3717 1.3968 35.7123 1.88571 35.7123L20.7745 35.7123L16.1599 49.2718C15.9048 50.0199 16.0058 50.8075 16.4433 51.4902C16.8791 52.1729 17.6001 52.6685 18.4716 52.8844C18.7851 52.9635 19.1022 53 19.4158 53C20.8861 53 22.2447 52.1729 22.677 50.9033L27.846 35.7092L34.3826 35.7092L39.5534 50.9033C39.9856 52.1729 41.3443 53 42.8146 53C43.1263 53 43.4434 52.9635 43.7587 52.8844C44.6303 52.667 45.3513 52.1729 45.787 51.4902C46.2246 50.8075 46.3255 50.0199 46.0705 49.2718L41.4559 35.7123L62.1143 35.7123C62.6032 35.7123 63 35.3717 63 34.952L63 1.76023C63 1.34058 62.6032 1 62.1143 1ZM61.2286 2.52047L61.2286 29.9071L21.5185 29.9071L21.5185 26.848C21.5185 26.4283 21.1217 26.0877 20.6327 26.0877L9.85714 26.0877C9.36823 26.0877 8.97143 26.4283 8.97143 26.848L8.97143 29.9071L2.77143 29.9071L2.77143 2.52047L61.2286 2.52047ZM19.747 29.9071L10.7429 29.9071L10.7429 27.6082L19.747 27.6082L19.747 29.9071ZM20.9746 50.4791C20.7249 51.215 19.8214 51.6377 18.9641 51.4263C18.5478 51.3229 18.2041 51.0857 17.9951 50.7588C17.7861 50.4319 17.7365 50.0564 17.8587 49.6975L22.6203 35.7108L26.0002 35.7108L20.9746 50.4791ZM44.3681 49.6991C44.4903 50.0564 44.4425 50.4334 44.2317 50.7603C44.0227 51.0872 43.679 51.3244 43.2627 51.4278C42.4054 51.6361 41.5002 51.2165 41.2522 50.4806L36.2266 35.7138L39.6065 35.7138L44.3681 49.6991ZM40.2726 34.1918L35.0469 34.1918L27.1817 34.1918L21.956 34.1918L2.77143 34.1918L2.77143 31.4276L9.85714 31.4276L20.6327 31.4276L61.2286 31.4276L61.2286 34.1918L40.2726 34.1918Z" fill="#F2D1BE" stroke="#F2D1BE" stroke-width="2"/>
</svg>
