<svg width="50" height="50" viewBox="0 0 50 50" fill="none" xmlns="http://www.w3.org/2000/svg">
<path d="M4.82477 12.2591L0.115623 4.46671L3.25506 1.34975L11.1036 6.02519L11.1036 9.14214L19.1765 17.1572C19.1765 17.3798 19.1765 17.6025 19.1765 17.8251L16.2613 20.4968L7.96421 12.2591L4.82477 12.2591ZM38.4616 31.1835C37.7888 31.1835 37.3403 31.1835 36.6676 31.1835C35.0979 31.1835 33.7524 30.9608 32.4069 30.7382L27.6978 36.0815L38.2373 47.8814C40.704 50.5531 44.9647 50.7758 47.4314 48.1041C50.1223 45.4324 49.8981 41.4249 47.2071 38.9759L38.4616 31.1835ZM46.0859 22.7232C49.6738 19.1609 50.795 13.8176 49.4496 9.14214C49.2253 8.25158 48.1041 8.02894 47.6556 8.69686L39.807 16.4893L33.5282 10.2553L41.3767 2.46295C42.0495 1.79503 41.8252 0.904474 40.9283 0.681834C36.2191 -0.876644 30.8372 0.236555 27.2493 4.02143C23.2129 8.02894 22.3159 14.2629 24.5584 19.1609L2.13383 38.9759C-0.557113 41.4249 -0.781359 45.6551 1.90958 48.1041C4.60053 50.7758 8.63694 50.5531 11.1036 47.8814L31.0615 25.6175C35.9949 27.8439 42.0495 26.9533 46.0859 22.7232Z" fill="#F2D1BE"/>
</svg>
