<svg width="66" height="66" viewBox="0 0 66 66" fill="none" xmlns="http://www.w3.org/2000/svg">
<path fill-rule="evenodd" clip-rule="evenodd" d="M7.1546 23.0412C7.05351 23.6476 6.9778 24.2045 6.92101 24.6994C6.45606 24.8421 5.95504 25.0324 5.44596 25.2869C4.37079 25.8245 3.2069 26.6767 2.3183 28.0097C1.41755 29.3607 0.916992 31.0311 0.916992 32.9998C0.916992 34.9686 1.41755 36.639 2.3183 37.99C3.2069 39.3229 4.37079 40.1751 5.44596 40.7127C5.95504 40.9673 6.45606 41.1575 6.92101 41.3004C6.97777 41.7953 7.05351 42.3521 7.1546 42.9585C7.55101 45.337 8.3493 48.553 9.9749 51.8042C11.6063 55.0668 14.099 58.4183 17.8929 60.9476C21.7049 63.4889 26.6566 65.0832 33.0003 65.0832C39.3441 65.0832 44.2957 63.4889 48.1078 60.9476C51.9015 58.4183 54.3944 55.0668 56.0257 51.8042C57.6514 48.553 58.4497 45.337 58.8461 42.9585C58.947 42.3521 59.0228 41.7953 59.0797 41.3004C59.5446 41.1575 60.0457 40.9673 60.5547 40.7127C61.6297 40.1751 62.7938 39.3229 63.6825 37.99C64.5832 36.639 65.0837 34.9686 65.0837 32.9998C65.0837 31.0311 64.5832 29.3607 63.6825 28.0097C62.7938 26.6767 61.6297 25.8245 60.5547 25.2869C60.0457 25.0324 59.5446 24.8421 59.0797 24.6994C59.0228 24.2045 58.947 23.6476 58.8461 23.0412C58.4497 20.6627 57.6514 17.4467 56.0257 14.1954C54.3944 10.9328 51.9015 7.58141 48.1078 5.05219C44.2957 2.51081 39.3441 0.916504 33.0003 0.916504C26.6566 0.916504 21.7049 2.51081 17.8929 5.05219C14.0991 7.58141 11.6063 10.9328 9.97493 14.1955C8.3493 17.4467 7.55101 20.6627 7.1546 23.0412ZM53.1326 41.7498L12.8681 41.7498C13.1856 43.7682 13.8467 46.504 15.1924 49.1955C16.4777 51.7662 18.3599 54.248 21.1286 56.0937C23.879 57.9274 27.6774 59.2498 33.0003 59.2498C38.3232 59.2498 42.1216 57.9274 44.872 56.0937C47.6408 54.248 49.5229 51.7662 50.8083 49.1955C52.1538 46.504 52.815 43.7682 53.1326 41.7498ZM53.1326 24.2498L50.5003 24.2498C48.8894 24.2498 47.5837 25.5557 47.5837 27.1665C47.5837 28.7774 48.8894 30.0832 50.5003 30.0832L56.3337 30.0832C57.2332 30.1182 58.305 30.4597 58.8286 31.2452C59.0217 31.5348 59.2503 32.0519 59.2503 32.9998C59.2503 33.9478 59.0217 34.4649 58.8286 34.7545C58.305 35.54 57.2332 35.8815 56.3337 35.9165L9.66699 35.9165C8.76735 35.8815 7.69573 35.54 7.17193 34.7545C6.97893 34.4649 6.75033 33.9478 6.75033 32.9998C6.75033 32.0519 6.97893 31.5348 7.17193 31.2452C7.69573 30.4597 8.76735 30.1182 9.66699 30.0832L15.5003 30.0832C17.1111 30.0832 18.417 28.7774 18.417 27.1665C18.417 25.5557 17.1111 24.2498 15.5003 24.2498L12.8681 24.2498C13.1856 22.2316 13.8468 19.4956 15.1924 16.8042C16.4778 14.2335 18.3599 11.7516 21.1286 9.90582C22.0466 9.29387 23.0812 8.73886 24.2503 8.27094L24.2503 15.4998C24.2503 17.1107 25.5561 18.4165 27.167 18.4165C28.7779 18.4165 30.0837 17.1107 30.0837 15.4998L30.0837 6.89194C31.0012 6.79916 31.9725 6.74984 33.0003 6.74984C34.0282 6.74984 34.9994 6.79916 35.917 6.89194L35.917 15.4998C35.917 17.1107 37.2228 18.4165 38.8337 18.4165C40.4445 18.4165 41.7503 17.1107 41.7503 15.4998L41.7503 8.27094C42.9193 8.73886 43.9542 9.29387 44.872 9.90582C47.6408 11.7516 49.5229 14.2335 50.8083 16.8042C52.1538 19.4956 52.815 22.2316 53.1326 24.2498Z" fill="#F2D1BE"/>
</svg>
