<svg width="59" height="56" viewBox="0 0 59 56" fill="none" xmlns="http://www.w3.org/2000/svg">
<path d="M46.6113 27.055C47.3596 27.2959 48.108 27.5368 48.6068 27.5368C49.854 27.5368 51.1012 27.055 52.0989 26.0913C53.5956 24.6459 53.845 22.7187 53.0967 20.7914C52.5979 19.8278 51.8495 18.8642 50.8518 18.6233C48.8563 17.9006 46.8607 18.1415 45.3641 19.5869C43.8674 21.0323 43.618 22.9596 44.3663 24.8868C44.8652 25.8505 45.6135 26.5732 46.6113 27.055ZM47.1102 21.2733C47.6091 20.7915 48.108 20.5506 48.8563 20.5506C49.1058 20.5506 49.6046 20.5506 49.8541 20.7915C50.353 21.0324 50.6024 21.2733 50.8519 21.7551C51.3507 22.7188 51.1013 23.6823 50.353 24.4051C49.6047 25.1278 48.6069 25.3687 47.6092 24.8868C47.1104 24.6459 46.8609 24.405 46.6114 23.9232C46.1126 22.9596 46.362 21.996 47.1103 21.2733L47.1102 21.2733ZM57.5867 35.7276C52.3485 30.6686 43.8675 30.6686 38.6293 35.7276C38.1304 36.2094 38.1304 36.9321 38.6293 37.4139C39.1281 37.8958 39.8765 37.8957 40.3754 37.4139C44.6158 33.3186 51.6001 33.3186 55.8406 37.4139C56.09 37.6548 56.3395 37.6548 56.8384 37.6548C57.0878 37.6548 57.5867 37.6548 57.8361 37.4139C58.0856 37.173 58.0856 36.2094 57.5867 35.7276ZM35.3866 17.4188L28.1528 17.4188C27.4045 17.4188 26.9057 17.9006 26.9057 18.6233L26.9057 25.6096C26.9057 26.3323 27.4045 26.8141 28.1528 26.8141L35.3866 26.8141C36.1349 26.8141 36.6337 26.3323 36.6337 25.6096L36.6337 18.6233C36.6337 18.1415 36.1349 17.4188 35.3866 17.4188ZM34.1394 24.4051L29.4 24.4051L29.4 19.8278L34.1394 19.8278L34.1394 24.4051ZM20.9191 19.8278C21.1686 20.0688 21.418 20.0688 21.6674 20.0688C21.9169 20.0688 22.4157 19.8278 22.6652 19.587C27.4046 14.528 27.4046 6.33718 22.6652 1.27817C22.1663 1.03725 21.418 0.79638 20.9191 1.27817C20.4202 1.75996 20.4203 2.48268 20.9191 2.96452C24.9102 7.05989 24.9102 13.8052 20.9191 17.9006C20.4203 18.6233 20.4203 19.346 20.9191 19.8278ZM17.9258 22.4778C17.1775 21.996 16.4292 21.5142 15.6809 21.7551C14.6831 21.996 14.1843 22.4778 13.6854 23.4415L1.21345 52.1091C0.714591 53.5546 1.21345 54.2773 1.46291 54.5182C1.71237 54.7591 1.96177 55 2.71009 55C2.95954 55 3.4584 55 3.95726 54.7591L33.6405 42.7138C34.3888 42.4729 35.1371 41.7502 35.1371 41.0275C35.1371 40.3048 34.8877 39.3411 34.3888 38.8593L17.9258 22.4778ZM7.94825 42.9547L13.1865 48.0137L3.9572 51.8682L7.94825 42.9547ZM15.6809 47.0501L9.44489 41.0275C9.19543 40.7866 9.19543 40.7866 8.94603 40.7866L16.1797 24.4051L32.6427 40.3048L15.6809 47.0501Z" fill="#F2D1BE" stroke="#F2D1BE" stroke-width="0.78125"/>
</svg>
