<svg width="90" height="90" viewBox="0 0 90 90" fill="none" xmlns="http://www.w3.org/2000/svg">
<g filter="url(#filter0_d_150_881)">
<path fill-rule="evenodd" clip-rule="evenodd" d="M65.3113 23.4377C65.4152 23.4378 65.5202 23.4379 65.626 23.4379C65.7317 23.4379 65.8367 23.4378 65.9406 23.4377C67.3686 23.4362 68.6005 23.4349 69.6846 23.7254C72.5965 24.5056 74.8708 26.7799 75.6508 29.6916C75.9415 30.7759 75.9403 32.0079 75.9388 33.4359C75.9385 33.5397 75.9385 33.6445 75.9385 33.7504L75.9385 34.73C81.1945 35.2036 85.3135 39.621 85.3135 45.0004C85.3135 50.3797 81.1945 54.7972 75.9385 55.2709L75.9385 56.2504C75.9385 56.3565 75.9385 56.4611 75.9388 56.565C75.9403 57.993 75.9415 59.2249 75.6508 60.3094C74.8708 63.2209 72.5965 65.4952 69.6846 66.2756C68.6005 66.5659 67.3686 66.5647 65.9406 66.5632C65.8367 66.5629 65.7317 66.5629 65.626 66.5629C65.5202 66.5629 65.4152 66.5629 65.3113 66.5632C63.8833 66.5647 62.6515 66.5659 61.5673 66.2756C58.6555 65.4952 56.3811 63.2209 55.6011 60.3094C55.3105 59.2249 55.3116 57.993 55.3131 56.565C55.3135 56.4611 55.3135 56.3565 55.3135 56.2504L55.3135 47.8129L34.6885 47.8129L34.6885 56.2504C34.6885 56.3565 34.6886 56.4611 34.6887 56.565C34.6902 57.993 34.6915 59.2249 34.401 60.3094C33.6208 63.2209 31.3465 65.4952 28.4347 66.2756C27.3505 66.5659 26.1185 66.5647 24.6905 66.5632C24.5867 66.5629 24.4819 66.5629 24.376 66.5629C24.2701 66.5629 24.1652 66.5629 24.0614 66.5632C22.6335 66.5647 21.4015 66.5659 20.3172 66.2756C17.4055 65.4952 15.1312 63.2209 14.351 60.3094C14.0604 59.2249 14.0618 57.993 14.0633 56.565C14.0634 56.4611 14.0635 56.3565 14.0635 56.2504L14.0635 55.2709C8.80736 54.7972 4.68848 50.3797 4.68848 45.0004C4.68848 39.621 8.80736 35.2036 14.0635 34.73L14.0635 33.7504C14.0635 33.6445 14.0634 33.5397 14.0633 33.4359C14.0618 32.0079 14.0604 30.7759 14.351 29.6916C15.1312 26.7799 17.4055 24.5056 20.3172 23.7254C21.4015 23.4349 22.6335 23.4362 24.0614 23.4377C24.1652 23.4378 24.2701 23.4379 24.376 23.4379C24.4819 23.4379 24.5867 23.4378 24.6905 23.4377C26.1185 23.4362 27.3505 23.4349 28.4347 23.7254C31.3465 24.5056 33.6208 26.7799 34.401 29.6916C34.6915 30.7759 34.6902 32.0079 34.6887 33.4359C34.6886 33.5397 34.6885 33.6445 34.6885 33.7504L34.6885 42.1879L55.3135 42.1879L55.3135 33.7504C55.3135 33.6445 55.3135 33.5397 55.3131 33.4359C55.3116 32.0079 55.3105 30.7759 55.6011 29.6916C56.3811 26.7799 58.6555 24.5056 61.5673 23.7254C62.6515 23.4349 63.8833 23.4362 65.3113 23.4377ZM14.0635 40.4066C11.9239 40.8409 10.3135 42.7327 10.3135 45.0004C10.3135 47.2684 11.9239 49.1599 14.0635 49.5941L14.0635 40.4066ZM75.9385 49.5941C78.0782 49.1599 79.6885 47.2684 79.6885 45.0004C79.6885 42.7327 78.0782 40.8409 75.9385 40.4066L75.9385 49.5941ZM65.626 29.0629C63.7011 29.0629 63.2905 29.0871 63.0231 29.1588C62.0526 29.4188 61.2943 30.1769 61.0345 31.1475C60.9625 31.415 60.9385 31.8256 60.9385 33.7504L60.9385 56.2504C60.9385 58.1752 60.9625 58.5859 61.0345 58.8532C61.2943 59.8241 62.0526 60.582 63.0231 60.8422C63.2905 60.9139 63.7011 60.9379 65.626 60.9379C67.5508 60.9379 67.9615 60.9139 68.2288 60.8422C69.1993 60.582 69.9576 59.8241 70.2175 58.8532C70.2895 58.5859 70.3135 58.1752 70.3135 56.2504L70.3135 33.7504C70.3135 31.8256 70.2895 31.415 70.2175 31.1475C69.9576 30.1769 69.1993 29.4188 68.2288 29.1588C67.9615 29.0871 67.5508 29.0629 65.626 29.0629ZM24.376 29.0629C22.4512 29.0629 22.0406 29.0871 21.7731 29.1588C20.8025 29.4188 20.0444 30.1769 19.7843 31.1475C19.7126 31.415 19.6885 31.8256 19.6885 33.7504L19.6885 56.2504C19.6885 58.1752 19.7126 58.5859 19.7843 58.8532C20.0444 59.8241 20.8025 60.582 21.7731 60.8422C22.0406 60.9139 22.4512 60.9379 24.376 60.9379C26.3007 60.9379 26.7114 60.9139 26.9789 60.8422C27.9495 60.582 28.7076 59.8241 28.9676 58.8532C29.0393 58.5859 29.0635 58.1752 29.0635 56.2504L29.0635 33.7504C29.0635 31.8257 29.0393 31.415 28.9676 31.1475C28.7076 30.1769 27.9495 29.4188 26.9789 29.1588C26.7114 29.0871 26.3007 29.0629 24.376 29.0629Z" fill="#F2D1BE"/>
</g>
<defs>
<filter id="filter0_d_150_881" x="-3.99902" y="0" width="98" height="98" filterUnits="userSpaceOnUse" color-interpolation-filters="sRGB">
<feFlood flood-opacity="0" result="BackgroundImageFix"/>
<feColorMatrix in="SourceAlpha" type="matrix" values="0 0 0 0 0 0 0 0 0 0 0 0 0 0 0 0 0 0 127 0" result="hardAlpha"/>
<feOffset dy="4"/>
<feGaussianBlur stdDeviation="2"/>
<feComposite in2="hardAlpha" operator="out"/>
<feColorMatrix type="matrix" values="0 0 0 0 0 0 0 0 0 0 0 0 0 0 0 0 0 0 0.25 0"/>
<feBlend mode="normal" in2="BackgroundImageFix" result="effect1_dropShadow_150_881"/>
<feBlend mode="normal" in="SourceGraphic" in2="effect1_dropShadow_150_881" result="shape"/>
</filter>
</defs>
</svg>
