<svg width="65" height="67" viewBox="0 0 65 67" fill="none" xmlns="http://www.w3.org/2000/svg">
<path d="M56.7713 3.11628L61.2599 3.11628C61.6732 3.11628 62.008 3.46496 62.008 3.89535L62.008 8.56976C62.008 13.733 57.9888 17.9186 53.0308 17.9186L44.8017 17.9186C39.8437 17.9186 35.8244 13.733 35.8244 8.56976L35.8244 3.89535C35.8244 3.46496 36.1593 3.11628 36.5725 3.11628L41.0611 3.11628C41.8875 3.11628 42.5574 2.41869 42.5574 1.55814C42.5574 0.697587 41.8875 -2.80568e-09 41.0611 -2.54965e-09L36.5725 -1.15893e-09C34.5066 -5.18849e-10 32.832 1.74393 32.832 3.89535L32.832 8.56976C32.832 15.454 38.191 21.0349 44.8017 21.0349L53.0308 21.0349C59.6414 21.0349 65.0004 15.454 65.0004 8.56976L65.0004 3.89535C65.0004 1.74393 63.3258 -9.44796e-09 61.2599 -8.80788e-09L56.7713 -7.41716e-09C55.9449 -7.16113e-09 55.2751 0.697587 55.2751 1.55814C55.2751 2.41869 55.9449 3.11628 56.7713 3.11628Z" fill="#F2D1BE"/>
<path d="M47.7928 20.6451L47.7928 52.8985C47.7928 55.0374 46.1061 56.7939 44.0523 56.7939L38.0675 56.7939C37.2411 56.7939 36.5713 57.4915 36.5713 58.352C36.5713 59.2126 37.2411 59.9101 38.0675 59.9101L44.0523 59.9101C47.7588 59.9101 50.7852 56.7585 50.7852 52.8985L50.7852 20.6451C50.7852 19.7845 50.1154 19.0869 49.289 19.0869C48.4627 19.0869 47.7928 19.7845 47.7928 20.6451Z" fill="#F2D1BE"/>
<path d="M36.5713 58.0409C36.5713 54.8137 34.0595 52.1979 30.9605 52.1979C27.8616 52.1979 25.3498 54.8137 25.3498 58.0409C25.3498 61.2681 27.8616 63.8839 30.9605 63.8839C34.0595 63.8839 36.5713 61.2681 36.5713 58.0409ZM39.5637 58.0409C39.5637 62.9892 35.7122 67.0002 30.9605 67.0002C26.2089 67.0002 22.3574 62.9892 22.3574 58.0409C22.3574 53.0926 26.2089 49.0816 30.9605 49.0816C35.7122 49.0816 39.5637 53.0926 39.5637 58.0409ZM30.5755 21.1134C34.6653 25.3725 34.6653 32.2784 30.5755 36.5386L19.4662 48.1069C18.0058 49.6277 15.6371 49.6277 14.1768 48.1069L3.06732 36.5383C-1.02248 32.2783 -1.02248 25.3725 3.06754 21.1132C6.82171 17.2045 12.7158 16.883 16.8214 20.1488C20.9271 16.883 26.8211 17.2045 30.5755 21.1134ZM15.7635 23.3169C12.8422 20.2747 8.10539 20.2747 5.18341 23.3169C2.26209 26.3592 2.26209 31.292 5.18341 34.3349L16.2927 45.9033C16.5844 46.2071 17.0585 46.2071 17.3502 45.9033L28.4594 34.335C31.3808 31.292 31.3808 26.3591 28.4596 23.317C25.5375 20.2746 20.8007 20.2746 17.8794 23.3168C17.2951 23.9253 16.3478 23.9253 15.7635 23.3168L15.7635 23.3169Z" fill="#F2D1BE"/>
</svg>
