<svg width="54" height="54" viewBox="0 0 54 54" fill="none" xmlns="http://www.w3.org/2000/svg">
<path d="M4.84391 3.75684L45.9641 44.877C46.7443 45.6573 47.1827 46.7156 47.1827 47.8191C47.1827 48.9225 46.7443 49.9808 45.9641 50.7611C45.1837 51.541 44.1255 51.9792 43.0221 51.9792C41.9187 51.9792 40.8605 51.541 40.0801 50.7611L30.0352 40.5433C29.3779 39.8758 29.0091 38.9767 29.0084 38.0399L29.0084 37.4227C29.0085 36.9496 28.9146 36.4813 28.7322 36.0448C28.5498 35.6084 28.2826 35.2125 27.9459 34.8802L26.649 33.6826C26.2087 33.2764 25.6734 32.9874 25.0922 32.8423C24.511 32.6972 23.9026 32.7006 23.3231 32.8523C22.4092 33.0908 21.4488 33.0862 20.5372 32.8389C19.6257 32.5916 18.7946 32.1103 18.1265 31.4426L8.59175 21.9067C2.93539 16.2504 0.853878 7.70892 4.84391 3.75684Z" stroke="#F2D1BE" stroke-width="3" stroke-linejoin="round"/>
<path d="M43.0715 2L34.4497 10.6218C33.7863 11.2851 33.26 12.0726 32.9009 12.9394C32.5418 13.8061 32.357 14.7351 32.357 15.6733L32.357 17.3318C32.3571 17.5664 32.3109 17.7988 32.221 18.0156C32.1312 18.2324 31.9996 18.4293 31.8336 18.5952L30.5713 19.8575" stroke="#F2D1BE" stroke-width="3" stroke-linecap="round" stroke-linejoin="round"/>
<path d="M34.1426 23.4289L35.4049 22.1666C35.5708 22.0007 35.7677 21.869 35.9845 21.7792C36.2013 21.6894 36.4336 21.6432 36.6683 21.6432L38.3268 21.6432C39.265 21.6432 40.194 21.4584 41.0607 21.0993C41.9274 20.7403 42.7149 20.214 43.3782 19.5505L52.0001 10.9287" stroke="#F2D1BE" stroke-width="3" stroke-linecap="round" stroke-linejoin="round"/>
<path d="M47.5352 6.46484L38.6064 15.3936" stroke="#F2D1BE" stroke-width="3" stroke-linecap="round" stroke-linejoin="round"/>
<path d="M20.7494 39.5005L9.61973 50.6927C8.78253 51.5296 7.64721 51.9998 6.46342 51.9998C5.27963 51.9998 4.1443 51.5296 3.30711 50.6927C2.47017 49.8555 2 48.7202 2 47.5364C2 46.3526 2.47017 45.2173 3.30711 44.3801L12.7135 35.0361" stroke="#F2D1BE" stroke-width="3" stroke-linecap="round" stroke-linejoin="round"/>
</svg>
