<svg width="66" height="65" viewBox="0 0 66 65" fill="none" xmlns="http://www.w3.org/2000/svg">
<path fill-rule="evenodd" clip-rule="evenodd" d="M3.83561 -0.0839844C2.2248 -0.0839844 0.918945 1.22187 0.918945 2.83268C0.918945 4.4435 2.2248 5.74935 3.83561 5.74935L7.39167 5.74935L17.7873 47.332C14.7228 48.6932 12.5856 51.7633 12.5856 55.3327C12.5856 60.1653 16.5031 64.0827 21.3356 64.0827C26.1681 64.0827 30.0856 60.1653 30.0856 55.3327C30.0856 54.3101 29.91 53.3283 29.5877 52.416L42.2502 52.416C41.9279 53.3283 41.7523 54.3101 41.7523 55.3327C41.7523 60.1653 45.6697 64.0827 50.5023 64.0827C55.3349 64.0827 59.2523 60.1653 59.2523 55.3327C59.2523 50.5001 55.3349 46.5827 50.5023 46.5827L23.6129 46.5827L22.1546 40.7493L50.5023 40.7493C56.5229 40.7493 60.1328 36.9457 62.136 32.7457C64.0937 28.6414 64.775 23.7362 65.0127 20.1684C65.3434 15.1998 61.2365 11.5827 56.6888 11.5827L14.8629 11.5827L13.0508 4.33456C12.4016 1.73774 10.0684 -0.0839844 7.39167 -0.0839844L3.83561 -0.0839844ZM50.5023 34.916L20.6962 34.916L16.3212 17.416L56.6888 17.416C58.302 17.416 59.2707 18.6024 59.1922 19.7808C58.9705 23.1099 58.3499 27.1338 56.8711 30.2345C55.4379 33.2392 53.4776 34.916 50.5023 34.916ZM50.5023 58.2313C48.9013 58.2313 47.6037 56.9336 47.6037 55.3327C47.6037 53.7317 48.9013 52.4341 50.5023 52.4341C52.1032 52.4341 53.4009 53.7317 53.4009 55.3327C53.4009 56.9336 52.1032 58.2313 50.5023 58.2313ZM18.4369 55.3327C18.4369 56.9336 19.7347 58.2313 21.3356 58.2313C22.9365 58.2313 24.2343 56.9336 24.2343 55.3327C24.2343 53.7317 22.9365 52.4341 21.3356 52.4341C19.7347 52.4341 18.4369 53.7317 18.4369 55.3327Z" fill="#F2D1BE" stroke="#F2D1BE" stroke-width="0.008"/>
</svg>
