<svg width="43" height="40" viewBox="0 0 43 40" fill="none" xmlns="http://www.w3.org/2000/svg">
<path d="M17.4355 3.33301H6.916C6.2188 3.33389 5.55042 3.59756 5.05743 4.06621C4.56443 4.53486 4.28706 5.17024 4.28613 5.83301V15.833C4.28706 16.4958 4.56443 17.1312 5.05743 17.5998C5.55042 18.0684 6.2188 18.3321 6.916 18.333H17.4355C18.1327 18.3321 18.8011 18.0684 19.2941 17.5998C19.7871 17.1312 20.0644 16.4958 20.0654 15.833V5.83301C20.0644 5.17024 19.7871 4.53486 19.2941 4.06621C18.8011 3.59756 18.1327 3.33389 17.4355 3.33301ZM18.3121 15.833C18.3116 16.0539 18.2191 16.2656 18.0548 16.4218C17.8905 16.578 17.6678 16.6659 17.4355 16.6663H6.916C6.68365 16.6659 6.46095 16.578 6.29665 16.4218C6.13235 16.2656 6.03984 16.0539 6.03938 15.833V5.83301C6.03984 5.61213 6.13235 5.40042 6.29665 5.24424C6.46095 5.08805 6.68365 5.00011 6.916 4.99967H17.4355C17.6678 5.00011 17.8905 5.08805 18.0548 5.24424C18.2191 5.40042 18.3116 5.61213 18.3121 5.83301V15.833ZM36.7212 3.33301H26.2017C25.5045 3.33389 24.8361 3.59756 24.3431 4.06621C23.8501 4.53486 23.5728 5.17024 23.5718 5.83301V15.833C23.5728 16.4958 23.8501 17.1312 24.3431 17.5998C24.8361 18.0684 25.5045 18.3321 26.2017 18.333H36.7212C37.4184 18.3321 38.0868 18.0684 38.5798 17.5998C39.0728 17.1312 39.3501 16.4958 39.3511 15.833V5.83301C39.3501 5.17024 39.0728 4.53486 38.5798 4.06621C38.0868 3.59756 37.4184 3.33389 36.7212 3.33301ZM37.5978 15.833C37.5974 16.0539 37.5048 16.2656 37.3405 16.4218C37.1763 16.578 36.9535 16.6659 36.7212 16.6663H26.2017C25.9694 16.6659 25.7467 16.578 25.5824 16.4218C25.4181 16.2656 25.3256 16.0539 25.3251 15.833V5.83301C25.3256 5.61213 25.4181 5.40042 25.5824 5.24424C25.7467 5.08805 25.9694 5.00011 26.2017 4.99967H36.7212C36.9535 5.00011 37.1763 5.08805 37.3405 5.24424C37.5048 5.40042 37.5974 5.61213 37.5978 5.83301V15.833ZM17.4355 21.6663H6.916C6.2188 21.6672 5.55042 21.9309 5.05743 22.3995C4.56443 22.8682 4.28706 23.5036 4.28613 24.1663V34.1663C4.28706 34.8291 4.56443 35.4645 5.05743 35.9331C5.55042 36.4018 6.2188 36.6655 6.916 36.6663H17.4355C18.1327 36.6655 18.8011 36.4018 19.2941 35.9331C19.7871 35.4645 20.0644 34.8291 20.0654 34.1663V24.1663C20.0644 23.5036 19.7871 22.8682 19.2941 22.3995C18.8011 21.9309 18.1327 21.6672 17.4355 21.6663ZM18.3121 34.1663C18.3116 34.3872 18.2191 34.5989 18.0548 34.7551C17.8905 34.9113 17.6678 34.9992 17.4355 34.9997H6.916C6.68365 34.9992 6.46095 34.9113 6.29665 34.7551C6.13235 34.5989 6.03984 34.3872 6.03938 34.1663V24.1663C6.03984 23.9455 6.13235 23.7338 6.29665 23.5776C6.46095 23.4214 6.68365 23.3334 6.916 23.333H17.4355C17.6678 23.3334 17.8905 23.4214 18.0548 23.5776C18.2191 23.7338 18.3116 23.9455 18.3121 24.1663V34.1663ZM36.7212 21.6663H26.2017C25.5045 21.6672 24.8361 21.9309 24.3431 22.3995C23.8501 22.8682 23.5728 23.5036 23.5718 24.1663V34.1663C23.5728 34.8291 23.8501 35.4645 24.3431 35.9331C24.8361 36.4018 25.5045 36.6655 26.2017 36.6663H36.7212C37.4184 36.6655 38.0868 36.4018 38.5798 35.9331C39.0728 35.4645 39.3501 34.8291 39.3511 34.1663V24.1663C39.3501 23.5036 39.0728 22.8682 38.5798 22.3995C38.0868 21.9309 37.4184 21.6672 36.7212 21.6663ZM37.5978 34.1663C37.5974 34.3872 37.5048 34.5989 37.3405 34.7551C37.1763 34.9113 36.9535 34.9992 36.7212 34.9997H26.2017C25.9694 34.9992 25.7467 34.9113 25.5824 34.7551C25.4181 34.5989 25.3256 34.3872 25.3251 34.1663V24.1663C25.3256 23.9455 25.4181 23.7338 25.5824 23.5776C25.7467 23.4214 25.9694 23.3334 26.2017 23.333H36.7212C36.9535 23.3334 37.1763 23.4214 37.3405 23.5776C37.5048 23.7338 37.5974 23.9455 37.5978 24.1663V34.1663Z" fill="#ABABAB" stroke="#ABABAB"/>
</svg>
