<svg width="50" height="50" viewBox="0 0 50 50" fill="none" xmlns="http://www.w3.org/2000/svg">
<path d="M46.9055 8.56141L37.6013 17.8655L37.6258 17.9469L44.6914 43.9545C44.8124 44.5227 44.7976 45.1115 44.6484 45.6729C44.4992 46.2344 44.2197 46.7528 43.8326 47.1861L41.5005 49.5182C41.3497 49.6943 41.1569 49.8296 40.94 49.9115C40.723 49.9934 40.489 50.0194 40.2594 49.9869C40.0298 49.9545 39.8121 49.8647 39.6264 49.7258C39.4407 49.587 39.2929 49.4036 39.1968 49.1926L29.6403 31.8949L26.6081 28.8587L18.59 36.8767C17.671 37.6967 16.644 38.3869 15.5375 38.928L17.3283 44.8173C17.4642 45.3787 17.4615 45.9648 17.3204 46.525C17.1793 47.0851 16.904 47.6026 16.5184 48.0326L15.8061 48.749C15.4425 49.1098 14.9509 49.3124 14.4386 49.3124C13.9262 49.3124 13.4347 49.1098 13.071 48.749L8.83815 44.5202L8.76489 44.4388L5.55767 41.2397L5.47627 41.1583L1.25154 36.9296C0.890651 36.5659 0.688138 36.0744 0.688138 35.562C0.688138 35.0497 0.890651 34.5582 1.25154 34.1945L1.96787 33.4782C2.3987 33.0939 2.91648 32.8202 3.47661 32.6805C4.03674 32.5408 4.62243 32.5394 5.18323 32.6764L11.0726 34.4591C11.6142 33.3529 12.3043 32.3259 13.1239 31.4065L21.142 23.3886L18.1057 20.3605L0.8079 10.804C0.59688 10.7079 0.413483 10.5602 0.274651 10.3745C0.135819 10.1887 0.0460305 9.97103 0.0135795 9.74144C-0.0188715 9.51185 0.00706181 9.27779 0.0889841 9.06087C0.170906 8.84396 0.306175 8.65118 0.482294 8.50036L2.81445 6.16823C3.24786 5.78143 3.76627 5.50212 4.32771 5.35292C4.88914 5.20373 5.47782 5.18884 6.04608 5.30945L32.0538 12.375L32.1352 12.3995L41.4394 3.09535C42.9454 1.5813 48.037 -1.05608 49.5511 0.449831C51.057 1.96388 48.4155 7.05143 46.9055 8.56141Z" fill="#F2D1BE" stroke="#F2D1BE" stroke-width="0.008"/>
</svg>
